<svg xmlns="http://www.w3.org/2000/svg" width="160" height="184"
         viewBox="0 0 160 184">
  <title>Xolito — mood: panic</title>

  

  <!-- Cola -->
  <ellipse cx="127.2" cy="97" rx="22" ry="10" fill="#B8C8A8" opacity="0.9"/>
  <ellipse cx="140.2" cy="97" rx="13" ry="7"  fill="#88A868" opacity="0.7"/>

  <!-- Pantalón -->
  <rect x="54.8" y="92" width="52.400000000000006" height="48" rx="4" fill="#2a3a2a"/>
  <rect x="54.8" y="92" width="52.400000000000006" height="4" fill="#1a2a1a"/>
  <rect x="54.8" y="91" width="52.400000000000006" height="5" rx="1" fill="#1a1a1a"/>
  <rect x="77"        y="90" width="6"               height="7" rx="1" fill="#888888" stroke="#cccccc" stroke-width="0.5"/>
  <rect x="54.8" y="120" width="24.200000000000003" height="28.799999999999997" rx="4" fill="#2a3a2a"/>
  <rect x="83"        y="120" width="24.200000000000003" height="28.799999999999997" rx="4" fill="#2a3a2a"/>
  <rect x="53.8" y="141.6" width="25.200000000000003" height="11.200000000000001" rx="3" fill="#1a1a1a"/>
  <rect x="53.8" y="141.6" width="25.200000000000003" height="4.48" rx="2" fill="#f5f5f5" opacity="0.8"/>
  <rect x="84"        y="141.6" width="25.200000000000003" height="11.200000000000001" rx="3" fill="#1a1a1a"/>
  <rect x="84"        y="141.6" width="25.200000000000003" height="4.48" rx="2" fill="#f5f5f5" opacity="0.8"/>

  <path d="M60.8,104 Q50.8,123.2 56.8,136"
        fill="none" stroke="#C0C0C0" stroke-width="1.2" stroke-dasharray="3,2"/>

  <!-- Cuerpo -->
  <ellipse cx="80"     cy="88"     rx="27.200000000000003"         ry="22.400000000000002"         fill="#B8C8A8"/>
  <ellipse cx="82" cy="91" rx="16.32"   ry="14.560000000000002"  fill="#D8E8C8" opacity="0.7"/>

  <text font-size="5.5" font-weight="700" font-family="monospace" fill="#0a1a0a"
        transform="rotate(-15,50.8,80)">
    <tspan x="50.8" y="75">HECHO EN</tspan>
    <tspan x="48.8" y="83">MÉXICO</tspan>
  </text>

  <!-- Brazos -->
  <ellipse cx="47.8" cy="82" rx="7" ry="12" fill="#B8C8A8" transform="rotate(-15,47.8,82)"/>
  <ellipse cx="112.2" cy="82" rx="7" ry="12" fill="#B8C8A8" transform="rotate(15,112.2,82)"/>

  <!-- Paliacate -->
  <path d="M66,74.80000000000001
           Q80,94.80000000000001 94,74.80000000000001
           Q86,86.80000000000001 80,98.80000000000001
           Q74,86.80000000000001 66,74.80000000000001Z"
        fill="#1a1a1a" opacity="0.92"/>
  <circle cx="74" cy="82.80000000000001"  r="1" fill="white" opacity="0.25"/>
  <circle cx="80" cy="87.80000000000001"  r="1" fill="white" opacity="0.25"/>
  <circle cx="86" cy="82.80000000000001"   r="1" fill="white" opacity="0.25"/>

  <!-- Corbata (modo pánico) -->
  <path d="M75,78.80000000000001 L80,84.80000000000001 L85,78.80000000000001 L83,74.80000000000001 L77,74.80000000000001Z" fill="#1a1a1a" stroke="#333" stroke-width="0.5"/>
       <line x1="80" y1="84.80000000000001" x2="80" y2="65.6" stroke="#1a1a1a" stroke-width="4"/>

  <!-- Cabeza -->
  <ellipse cx="80"     cy="44.800000000000004"     rx="35.2"         ry="32"          fill="#B8C8A8"/>
  <circle cx="75"  cy="35.800000000000004" r="1.5" fill="rgb(160,176,144)" opacity="0.4"/>
  <circle cx="88"  cy="39.800000000000004" r="1"   fill="rgb(160,176,144)" opacity="0.35"/>
  <circle cx="70" cy="46.800000000000004" r="1.2" fill="rgb(160,176,144)" opacity="0.35"/>
  <ellipse cx="83" cy="48.800000000000004" rx="19.360000000000003" ry="17.6" fill="#D8E8C8" opacity="0.5"/>

  <!-- Branquias izquierda -->
  <path d="M48.8,40.800000000000004 Q40.8,20.800000000000004 44.8,8.800000000000004"    stroke="#88A868" stroke-width="3.5" fill="none" stroke-linecap="round"/>
  <path d="M48.8,40.800000000000004 Q31.799999999999997,25.800000000000004 33.8,13.800000000000004" stroke="#88A868" stroke-width="3"   fill="none" stroke-linecap="round"/>
  <path d="M48.8,40.800000000000004 Q48.8,23.800000000000004 51.8,13.800000000000004"  stroke="#88A868" stroke-width="2.5" fill="none" stroke-linecap="round"/>
  <circle cx="44.8"     cy="8.800000000000004" r="4.5" fill="#88A868"/>
  <circle cx="33.8"cy="13.800000000000004" r="4"   fill="#88A868"/>
  <circle cx="51.8" cy="13.800000000000004" r="3.5" fill="#88A868"/>
  <!-- Branquias derecha -->
  <path d="M111.2,40.800000000000004 Q119.2,20.800000000000004 115.2,8.800000000000004"    stroke="#88A868" stroke-width="3.5" fill="none" stroke-linecap="round"/>
  <path d="M111.2,40.800000000000004 Q128.2,25.800000000000004 126.2,13.800000000000004" stroke="#88A868" stroke-width="3"   fill="none" stroke-linecap="round"/>
  <path d="M111.2,40.800000000000004 Q111.2,23.800000000000004 108.2,13.800000000000004"  stroke="#88A868" stroke-width="2.5" fill="none" stroke-linecap="round"/>
  <circle cx="115.2"     cy="8.800000000000004" r="4.5" fill="#88A868"/>
  <circle cx="126.2"cy="13.800000000000004" r="4"   fill="#88A868"/>
  <circle cx="108.2" cy="13.800000000000004" r="3.5" fill="#88A868"/>

  <ellipse cx="67" cy="42.800000000000004" rx="4" ry="4" fill="#1a1a1a"/>
            <circle  cx="68.5" cy="41.300000000000004" r="1.5" fill="white" opacity="0.8"/>
            <line x1="62" y1="36.800000000000004" x2="69" y2="40.800000000000004" stroke="#1a1a1a" stroke-width="2" stroke-linecap="round"/>
  <ellipse cx="93" cy="42.800000000000004" rx="4" ry="4" fill="#1a1a1a"/>
            <circle  cx="94.5" cy="41.300000000000004" r="1.5" fill="white" opacity="0.8"/>
            <line x1="98" y1="36.800000000000004" x2="91" y2="40.800000000000004" stroke="#1a1a1a" stroke-width="2" stroke-linecap="round"/>
  
  <path d="M71,58.800000000000004 Q78,52.800000000000004 89,58.800000000000004" fill="none" stroke="rgb(160,176,144)" stroke-width="2" stroke-linecap="round"/>

</svg>